<svg display="none" xmlns="http://www.w3.org/2000/svg">
<!-- description svg icon-->
    <svg id="desc" viewBox="0 0 64 64"  xmlns="http://www.w3.org/2000/svg"><g><path d="m53 7h-6v2h-4v12h14v-10h-4zm-2 2v10h-2v-10zm-6 2h2v8h-2zm10 2v6h-2v-6z"/><path d="m35 51v-14h-18v8h-12v14h18v-8zm-16-12h14v10h-10v-4h-4zm2 18h-14v-10h14z"/><path d="m5 5h14v2h-14z"/><path d="m5 9h2v2h-2z"/><path d="m9 9h10v2h-10z"/><path d="m17 13h2v2h-2z"/><path d="m5 13h10v2h-10z"/><path d="m5 17h14v2h-14z"/><path d="m5 21h14v2h-14z"/><path d="m5 25h34v2h-34z"/><path d="m5 29h34v2h-34z"/><path d="m5 33h2v2h-2z"/><path d="m9 33h30v2h-30z"/><path d="m59.192 23.222c2.456-2.455 3.808-5.72 3.808-9.222 0-7.168-5.832-13-13-13h-49v62h49c.998 0 1.896-.555 2.342-1.447l4.658-9.317v-19.42c1.161-.414 2-1.514 2-2.816 0-1.281-.811-2.369-1.943-2.798.173-1.364.784-2.627 1.772-3.616zm-56.192-20.222h40.106c-.9.567-1.727 1.236-2.461 2h-19.645v18h19.607c.069.072.13.151.201.222l.364.364c.988.989 1.598 2.252 1.772 3.616-1.133.429-1.944 1.517-1.944 2.798 0 1.302.839 2.402 2 2.816v19.421l4.382 8.763h-44.382zm36.068 4c-1.303 2.029-2.068 4.438-2.068 7.029 0 2.51.716 4.906 2.034 6.971h-16.034v-14zm13.932 44v-18h2v18zm-2 0h-2v-18h2zm-4 0h-2v-18h2zm3.553 9.658c-.211.422-.895.422-1.105 0l-3.83-7.658h8.764zm5.447-29.658h-12c-.551 0-1-.448-1-1s.449-1 1-1h12c.551 0 1 .448 1 1s-.449 1-1 1zm1.414-8.828c-1.318 1.319-2.128 3.006-2.347 4.828h-10.134c-.219-1.822-1.029-3.509-2.347-4.828l-.364-.364c-2.078-2.078-3.222-4.84-3.222-7.808 0-6.065 4.935-11 11-11s11 4.935 11 11.029c0 2.938-1.144 5.701-3.222 7.778z"/><path d="m31 53h10v2h-10z"/><path d="m39 57h2v2h-2z"/><path d="m31 57h2v2h-2z"/><path d="m35 57h2v2h-2z"/></g></svg>

<!-- quality svg icon-->
<svg id='quality' viewBox="-16 0 480 480" xmlns="http://www.w3.org/2000/svg"><path d="m448 240c-.097656-55.613281-40.960938-102.746094-96-110.71875v-73.28125c0-13.253906-10.746094-24-24-24h-72v-16c0-8.835938-7.164062-16-16-16h-128c-8.835938 0-16 7.164062-16 16v16h-72c-13.253906 0-24 10.746094-24 24v360c0 13.253906 10.746094 24 24 24h280v8c0 17.671875 14.328125 32 32 32s32-14.328125 32-32v-80c0-4.417969-3.582031-8-8-8v-10.65625c51.335938-11.316406 87.921875-56.773438 88-109.34375zm-16 0c0 53.019531-42.980469 96-96 96s-96-42.980469-96-96 42.980469-96 96-96c52.996094.058594 95.941406 43.003906 96 96zm-104-192c4.417969 0 8 3.582031 8 8v72c-5.355469.039062-10.703125.46875-16 1.28125v-49.28125c0-8.835938-7.164062-16-16-16h-48v-16zm-216-32h128v80h-128zm128 96c8.835938 0 16-7.164062 16-16v-16h48v52.71875c-48.9375 14.558594-81.820312 60.390625-79.933594 111.414062 1.882813 51.019532 38.054688 94.300782 87.933594 105.210938v10.65625c-4.417969 0-8 3.582031-8 8v24h-256v-312h48v16c0 8.835938 7.164062 16 16 16zm-216 312c-4.417969 0-8-3.582031-8-8v-360c0-4.417969 3.582031-8 8-8h72v16h-48c-8.835938 0-16 7.164062-16 16v312c0 8.835938 7.164062 16 16 16h256v16zm328 24c0 8.835938-7.164062 16-16 16s-16-7.164062-16-16v-72h32zm-8-88h-16v-8.40625c2.65625.191406 5.296875.40625 8 .40625s5.34375-.214844 8-.40625zm0 0"/><path d="m256 240c.046875 44.164062 35.835938 79.953125 80 80v-16c-35.347656 0-64-28.652344-64-64s28.652344-64 64-64v-16c-44.164062.046875-79.953125 35.835938-80 80zm0 0"/><path d="m80 160v64c0 4.417969 3.582031 8 8 8h64c4.417969 0 8-3.582031 8-8v-58.398438l14.070312-16.425781-12.140624-10.398437-11.320313 13.222656h-62.609375c-4.417969 0-8 3.582031-8 8zm16 8h40.894531l-17.351562 20.230469-9.886719-9.886719-11.3125 11.3125 16 16c1.5 1.5 3.535156 2.34375 5.65625 2.34375h.3125c2.222656-.089844 4.3125-1.101562 5.757812-2.792969l17.929688-20.917969v31.710938h-48zm0 0"/></svg>

<!-- extra svg icon-->
<svg id='extra' viewBox="0 0 64 64"  xmlns="http://www.w3.org/2000/svg"><g id="plan"><path d="m45 27.586-1.293-1.293-1.414 1.414 2 2a1 1 0 0 0 1.414 0l4-4-1.414-1.414z"/><path d="m45 35.586-1.293-1.293-1.414 1.414 2 2a1 1 0 0 0 1.414 0l4-4-1.414-1.414z"/><path d="m45 44.586-1.293-1.293-1.414 1.414 2 2a1 1 0 0 0 1.414 0l4-4-1.414-1.414z"/><path d="m57 21h-7v-10a3.009 3.009 0 0 0 -3-3h-10v-1a3.009 3.009 0 0 0 -3-3h-2v-1a1 1 0 0 0 -1-1h-8a1 1 0 0 0 -1 1v1h-2a3.009 3.009 0 0 0 -3 3v1h-10a3.009 3.009 0 0 0 -3 3v48a3.009 3.009 0 0 0 3 3h40a3.009 3.009 0 0 0 3-3v-8h7a3.009 3.009 0 0 0 3-3v-24a3.009 3.009 0 0 0 -3-3zm-25-15h2a1 1 0 0 1 1 1v1h-3zm0 4h15a1 1 0 0 1 1 1v10h-1v-9a1 1 0 0 0 -1-1h-14zm-8-6h6v8a1 1 0 0 1 -1 1h-4a1 1 0 0 1 -1-1zm-1.82 9a3.01 3.01 0 0 0 2.82 2h4a3.01 3.01 0 0 0 2.82-2h13.18v8h-4a3.009 3.009 0 0 0 -3 3v24a3.009 3.009 0 0 0 3 3h4v6h-36v-44zm-3.18-6a1 1 0 0 1 1-1h2v2h-3zm29 52a1 1 0 0 1 -1 1h-40a1 1 0 0 1 -1-1v-48a1 1 0 0 1 1-1h15v1h-14a1 1 0 0 0 -1 1v46a1 1 0 0 0 1 1h38a1 1 0 0 0 1-1v-7h1zm10-11a1 1 0 0 1 -1 1h-16a1 1 0 0 1 -1-1v-24a1 1 0 0 1 1-1h16a1 1 0 0 1 1 1z"/><path d="m50 27h6v2h-6z"/><path d="m50 35h6v2h-6z"/><path d="m50 44h6v2h-6z"/><path d="m26 23h6a1 1 0 0 0 1-1v-1h3v-2h-3v-1a1 1 0 0 0 -1-1h-6a1 1 0 0 0 -1 1v1h-6v-1a1 1 0 0 0 -1-1h-6a1 1 0 0 0 -1 1v4a1 1 0 0 0 1 1h2v4h-2a1 1 0 0 0 -1 1v4a1 1 0 0 0 1 1h2v4h-2a1 1 0 0 0 -1 1v4a1 1 0 0 0 1 1h2v4h-2a1 1 0 0 0 -1 1v4a1 1 0 0 0 1 1h6a1 1 0 0 0 1-1v-1h6v1a1 1 0 0 0 1 1h6a1 1 0 0 0 1-1v-1h3v-2h-3v-1a1 1 0 0 0 -1-1h-6a1 1 0 0 0 -1 1v1h-6v-1a1 1 0 0 0 -1-1h-2v-4h2a1 1 0 0 0 1-1v-4a1 1 0 0 0 -1-1h-2v-4h2a1 1 0 0 0 1-1v-1h6v1a1 1 0 0 0 1 1h2v4h-2a1 1 0 0 0 -1 1v4a1 1 0 0 0 1 1h6a1 1 0 0 0 1-1v-1h3v-2h-3v-1a1 1 0 0 0 -1-1h-2v-4h2a1 1 0 0 0 1-1v-1h3v-2h-3v-1a1 1 0 0 0 -1-1h-6a1 1 0 0 0 -1 1v1h-6v-1a1 1 0 0 0 -1-1h-2v-4h2a1 1 0 0 0 1-1v-1h6v1a1 1 0 0 0 1 1zm1-4h4v2h-4zm0 30h4v2h-4zm4-10v2h-4v-2zm-4-10h4v2h-4zm-10 20v2h-4v-2zm0-10v2h-4v-2zm0-10v2h-4v-2zm0-8h-4v-2h4z"/></g></svg>

<!-- powder svg icon-->
<svg version="1.1" id="powder" xmlns="http://www.w3.org/2000/svg" xmlns:xlink="http://www.w3.org/1999/xlink" x="0px" y="0px"
	 viewBox="0 0 448 448" style="enable-background:new 0 0 448 448;" xml:space="preserve">
<g>
	<g>
		<rect x="160" y="256" width="16" height="16"/>
	</g>
</g>
<g>
	<g>
		<path d="M440,88V40h-16v16h-24v-8c0-4.418-3.582-8-8-8h-24c0-13.255-10.745-24-24-24H56V8c0-4.418-3.582-8-8-8H16
			c-4.418,0-8,3.582-8,8v112c0,4.418,3.582,8,8,8h32c4.418,0,8-3.582,8-8v-8h48v16.72c-23.066,3.919-39.957,23.883-40,47.28v120
			c0,4.418,3.582,8,8,8h128c4.418,0,8-3.582,8-8V176c-0.043-23.397-16.934-43.361-40-47.28V112h59.24l4.608,39.2l-7.44,22.304
			l15.2,5.056l8-24c0.368-1.115,0.488-2.297,0.352-3.464L243.352,112h21.536l15.2,128.936c0.473,4.016,3.868,7.047,7.912,7.064h8v24
			c0,4.418,3.582,8,8,8h8v40c0,8.837-7.163,16-16,16H40c-17.673,0-32,14.327-32,32c0,17.673,14.327,32,32,32h368
			c8.837,0,16,7.163,16,16s-7.163,16-16,16H224v16h184c17.673,0,32-14.327,32-32c0-17.673-14.327-32-32-32H40
			c-8.837,0-16-7.163-16-16s7.163-16,16-16h256c17.673,0,32-14.327,32-32v-40h8c4.418,0,8-3.582,8-8v-24h8
			c4.418-0.001,8-3.583,7.999-8.001c0-0.312-0.018-0.625-0.055-0.935l-14.96-127.2C357.801,111.338,367.938,100.827,368,88h24
			c4.418,0,8-3.582,8-8v-8h24v16H440z M40,112H24V16h16V112z M296,32h16v24h-16V32z M264,32h16v24h-16V32z M232,32h16v24h-16V32z
			 M72,96H56V32h16V96z M192,176v112H80v-16h64v-16H80v-80c0-17.673,14.327-32,32-32h48C177.673,144,192,158.327,192,176z M120,128
			v-16h32v16H120z M328,264h-16v-16h16V264z M295.112,232L281,112h47.888L343,232H295.112z M352,88c0,4.418-3.582,8-8,8H88V32h128
			v32c0,4.418,3.582,8,8,8h96c4.418,0,8-3.582,8-8V32h16c4.418,0,8,3.582,8,8V88z M384,72h-16V56h16V72z"/>
	</g>
</g>
<g>
	<g>
		<rect x="192" y="432" width="16" height="16"/>
	</g>
</g>
<g>
</g>
<g>
</g>
<g>
</g>
<g>
</g>
<g>
</g>
<g>
</g>
<g>
</g>
<g>
</g>
<g>
</g>
<g>
</g>
<g>
</g>
<g>
</g>
<g>
</g>
<g>
</g>
<g>
</g>
</svg>
</svg>
